<?xml version="1.0" encoding="utf-8" ?>
<svg baseProfile="full" height="200mm" version="1.1" viewBox="0,0,200,200" width="200mm" xmlns="http://www.w3.org/2000/svg" xmlns:ev="http://www.w3.org/2001/xml-events" xmlns:xlink="http://www.w3.org/1999/xlink"><defs /><rect fill="#1a1a1a" height="200" width="200" x="0" y="0" /><text alignment-baseline="middle" fill="#e1ed5e" style="dominant-baseline: central; font-size:9.0px; font-family:Arial;" text-anchor="middle" x="100.0" y="100.0">2021</text><line stroke="#e1ed5e" stroke-width="0.3" x1="100.0" x2="100.0" y1="15.0" y2="10.0" /><path d="M 100.0 14.0 a86.0,86.0 0 0,1 42.46469731375804,11.215312516191453" fill="none" id="id13" stroke="none" /><text fill="#e1ed5e" style="font-size:6.75px; font-family:Arial;" text-anchor="middle"><textPath startOffset="22.20632615414155" xlink:href="#id13">January</textPath></text><path d="M 100.72285384407766 79.0124445844662 l 0.970186515453406 -28.16868641331373 a49.18538905401827,49.18538905401827 0 0,0 0.8458930556836249,0.036425934361046165 l -1.4549204035263625 28.14781275242849" fill="#ffe915" stroke="none" /><path d="M 101.08401301168833 79.027996857942 l 1.3351568016231408 -25.830790162905643 a46.86527332399531,46.86527332399531 0 0,0 0.8052747241334314,0.04857637046961081 l -1.779593574596184 25.803980523055728" fill="#ffc412" stroke="none" /><path d="M 101.44485096284872 79.0497635885617 l 4.334552888546152 -62.8507092343149 a84.0,84.0 0 0,0 1.4416392425506352,0.11189895124614191 l -5.415782320459128 62.76678502088029" fill="#4dd2ff" stroke="none" /><path d="M 102.52436894288641 79.15227682838746 l 4.55011400906683 -37.57751715636202 a58.85199245921129,58.85199245921129 0 0,0 1.0046463092664073,0.1304319244849179 l -5.196275046841083 37.49362690871297" fill="#85ff25" stroke="none" /><path d="M 105.36241919743992 79.69619591428918 l 7.216046102211695 -27.32221800241025 a49.25906788838718,49.25906788838718 0 0,0 0.8179400451215778,0.22357391219593437 l -7.685284036556983 27.19395754938802" fill="#ffeb16" stroke="none" /><path d="M 106.40334571778207 80.00007090966166 l 19.014528746949743 -59.38914489172947 a83.35882322846876,83.35882322846876 0 0,0 1.3627864729519577,0.449289273874431 l -20.033998042144116 59.05304189359581" fill="#4cd9ff" stroke="none" /><line stroke="#e1ed5e" stroke-width="0.3" x1="143.23703022742887" x2="145.7803849466894" y1="26.81831364943548" y2="22.513508569990506" /><path d="M 143.74570117128098 25.957352633546492 a86.0,86.0 0 0,1 28.547481713284135,27.462654790039103" fill="none" id="id14" stroke="none" /><text fill="#e1ed5e" style="font-size:6.75px; font-family:Arial;" text-anchor="middle"><textPath startOffset="19.985693538727396" xlink:href="#id14">February</textPath></text><path d="M 112.48926042617603 83.11751280151076 l 18.59139850762925 -25.131115582250978 a52.26040736903371,52.26040736903371 0 0,0 0.7185901730458204,0.5412272204014856 l -19.021234834433454 24.807371772343643" fill="#e5ff1a" stroke="none" /><path d="M 112.77801427241765 83.33499621200491 l 18.38885705969925 -23.982628757762907 a51.22112747888019,51.22112747888019 0 0,0 0.6950644675956943,0.5425088418883386 l -18.798954082454376 23.662541526651346" fill="#f5ff19" stroke="none" /><path d="M 113.89432698308785 84.25364557470407 l 26.924080809135923 -30.51289346450546 a61.69327702450543,61.69327702450543 0 0,0 0.7902292218470816,0.7094755977946852 l -27.445321018578994 30.044918857941475" fill="#5fff29" stroke="none" /><path d="M 115.9244219780498 86.31012108654704 l 12.021190317724333 -10.334355625093353 a36.8526944978085,36.8526944978085 0 0,0 0.40939726146383026,0.4845972270296421 l -12.19729819267528 10.125899448434604" fill="#ff1502" stroke="none" /><line stroke="#e1ed5e" stroke-width="0.3" x1="172.23445277983987" x2="176.4835382374775" y1="55.19839476539836" y2="52.563006222186495" /><path d="M 173.08426987136738 54.67131705675599 a86.0,86.0 0 0,1 12.851231095245387,41.99856678651699" fill="none" id="id15" stroke="none" /><text fill="#e1ed5e" style="font-size:6.75px; font-family:Arial;" text-anchor="middle"><textPath startOffset="22.20632615414155" xlink:href="#id15">March</textPath></text><path d="M 118.21658344932153 89.55222093294921 l 26.545372216146415 -15.224599329423413 a51.60139230223419,51.60139230223419 0 0,0 0.43527582595296455,0.7743071249884658 l -26.803505683391812 14.765408694500152" fill="#efff19" stroke="none" /><path d="M 118.89224826269711 90.83032412892265 l 16.04007128799851 -7.7853229861654665 a38.829614155191095,38.829614155191095 0 0,0 0.2866768338594542,0.6038145238156707 l -16.171706315699723 7.5080660467092555" fill="#ff3905" stroke="none" /><line stroke="#e1ed5e" stroke-width="0.3" x1="184.98032266829074" x2="189.97916517819016" y1="98.17113171792111" y2="98.06355123074" /><path d="M 185.9800911702706 98.14961562048488 a86.0,86.0 0 0,1 -9.607161424134198,41.387399972396054" fill="none" id="id16" stroke="none" /><text fill="#e1ed5e" style="font-size:6.75px; font-family:Arial;" text-anchor="middle"><textPath startOffset="21.466115282336823" xlink:href="#id16">April</textPath></text><path d="M 120.92983693683757 101.71520430193887 l 25.393333097693436 2.0809887005412793 a46.47845913280851,46.47845913280851 0 0,0 -0.07220849969653964,0.7968147771140823 l -25.35375000171982 -2.517784866203932" fill="#ffbe11" stroke="none" /><path d="M 120.89721153311464 102.0752229133903 l 25.867034295631992 2.5687571849806248 a46.99426815139813,46.99426815139813 0 0,0 -0.08686711106093774,0.8042815630449949 l -25.81898488307 -3.013635069910411" fill="#ffc612" stroke="none" /><path d="M 120.8583938346157 102.4346265915055 l 25.318690337424698 2.9552398543405602 a46.49057714134942,46.49057714134942 0 0,0 -0.09961932407636695,0.7940640292159197 l -25.26406950410148 -3.390621637843875" fill="#ffbe11" stroke="none" /><path d="M 120.81339534386255 102.79330883721812 l 26.412516067689705 3.544751508638345 a47.64932022179854,47.64932022179854 0 0,0 -0.11609631845534144,0.8119773808774311 l -26.347585698217763 -3.9988743614961852" fill="#ffd113" stroke="none" /><path d="M 120.70491114924044 103.5080841355445 l 30.45100022052033 5.159388031906058 a51.8849914892963,51.8849914892963 0 0,0 -0.15677558567603644,0.879280742352719 l -30.357678192505105 -5.682787524991996" fill="#ebff1a" stroke="none" /><path d="M 120.5718875245553 104.21870165774334 l 24.90456686599266 5.107209408836889 a46.42284481973667,46.42284481973667 0 0,0 -0.16726805611578013,0.7814206717697427 l -24.812964771152437 -5.535143900022801" fill="#ffbd11" stroke="none" /><path d="M 120.49622156327973 104.57218783832717 l 30.563145542210762 6.817863571472754 a52.31435979089422,52.31435979089422 0 0,0 -0.20362600776253031,0.8772155120532301 l -30.44125896851768 -7.342947740874548" fill="#e4ff1a" stroke="none" /><path d="M 120.23288151984713 105.62410040840565 l 14.176006927372061 3.9404810566200084 a35.71348236694773,35.71348236694773 0 0,0 -0.1697365953647542,0.5908753558140436 l -14.106077695121206 -4.183913887938634" fill="#ff0000" stroke="none" /><path d="M 120.13307415673323 105.97154293290107 l 23.951704914377576 7.104162687671295 a45.983060176814206,45.983060176814206 0 0,0 -0.23160841356887424,0.7569096963162051 l -23.825869728302568 -7.5153993565395565" fill="#ffb510" stroke="none" /><path d="M 120.02730092923936 106.31721596034902 l 24.20498188431422 7.634982787735848 a46.380585300362995,46.380585300362995 0 0,0 -0.24671765621202355,0.7593188688542142 l -24.06997197708595 -8.050500556567858" fill="#ffbc11" stroke="none" /><line stroke="#e1ed5e" stroke-width="0.3" x1="174.80103733775053" x2="179.2010983576182" y1="140.37084112569926" y2="142.7455964860345" /><path d="M 175.68104954172406 140.8457921977663 a86.0,86.0 0 0,1 -30.038265399797805,32.042727171017184" fill="none" id="id17" stroke="none" /><text fill="#e1ed5e" style="font-size:6.75px; font-family:Arial;" text-anchor="middle"><textPath startOffset="22.206326154141568" xlink:href="#id17">May</textPath></text><line stroke="#e1ed5e" stroke-width="0.3" x1="143.8653032363475" x2="146.44561519142675" y1="172.8068346515853" y2="177.08958963109032" /><path d="M 144.38136562736335 173.6633856474863 a86.0,86.0 0 0,1 -40.68145358897372,12.25698825130547" fill="none" id="id18" stroke="none" /><text fill="#e1ed5e" style="font-size:6.75px; font-family:Arial;" text-anchor="middle"><textPath startOffset="21.466115282336833" xlink:href="#id18">June</textPath></text><line stroke="#e1ed5e" stroke-width="0.3" x1="102.19456741930631" x2="102.32365962044197" y1="184.97166512339345" y2="189.96999836594603" /><path d="M 102.22038585953345 185.97133177190398 a86.0,86.0 0 0,1 -42.740103519485714,-10.115201625700543" fill="none" id="id19" stroke="none" /><text fill="#e1ed5e" style="font-size:6.75px; font-family:Arial;" text-anchor="middle"><textPath startOffset="22.20632615414155" xlink:href="#id19">July</textPath></text><line stroke="#e1ed5e" stroke-width="0.3" x1="58.666819895761336" x2="56.23545636021788" y1="174.27360380694188" y2="178.64263932499728" /><path d="M 58.180547188652646 175.14741091055294 a86.0,86.0 0 0,1 -31.652253787137756,-30.449443065178592" fill="none" id="id20" stroke="none" /><text fill="#e1ed5e" style="font-size:6.75px; font-family:Arial;" text-anchor="middle"><textPath startOffset="22.20632615414155" xlink:href="#id20">August</textPath></text><line stroke="#e1ed5e" stroke-width="0.3" x1="26.63291911575756" x2="22.317208475507996" y1="142.92168965132927" y2="145.44649492493687" /><path d="M 25.769776987707644 143.4266507060508 a86.0,86.0 0 0,1 -11.730757126820373,-40.83630448921669" fill="none" id="id21" stroke="none" /><text fill="#e1ed5e" style="font-size:6.75px; font-family:Arial;" text-anchor="middle"><textPath startOffset="21.46611528233685" xlink:href="#id21">September</textPath></text><line stroke="#e1ed5e" stroke-width="0.3" x1="15.007084014347285" x2="10.007500721073583" y1="101.09737516637583" y2="101.16192664675087" /><path d="M 14.007167355692545 101.11028546245083 a86.0,86.0 0 0,1 10.666146001902534,-42.60595125391555" fill="none" id="id22" stroke="none" /><text fill="#e1ed5e" style="font-size:6.75px; font-family:Arial;" text-anchor="middle"><textPath startOffset="22.20632615414155" xlink:href="#id22">October</textPath></text><line stroke="#e1ed5e" stroke-width="0.3" x1="26.266209847984243" x2="21.928928074336255" y1="57.711370442889674" y2="55.22380399835377" /><path d="M 25.398753493254645 57.213857153982495 a86.0,86.0 0 0,1 29.58750427330803,-30.492523968695096" fill="none" id="id23" stroke="none" /><text fill="#e1ed5e" style="font-size:6.75px; font-family:Arial;" text-anchor="middle"><textPath startOffset="21.46611528233685" xlink:href="#id23">November</textPath></text><line stroke="#e1ed5e" stroke-width="0.3" x1="56.762969772571076" x2="54.21961505331055" y1="26.818313649435495" y2="22.513508569990535" /><path d="M 56.25429882871897 25.957352633546506 a86.0,86.0 0 0,1 42.265352541879196,-11.944610805530505" fill="none" id="id24" stroke="none" /><text fill="#e1ed5e" style="font-size:6.75px; font-family:Arial;" text-anchor="middle"><textPath startOffset="22.20632615414155" xlink:href="#id24">December</textPath></text></svg>