<?xml version="1.0" encoding="utf-8" ?>
<svg baseProfile="full" height="200mm" version="1.1" viewBox="0,0,200,200" width="200mm" xmlns="http://www.w3.org/2000/svg" xmlns:ev="http://www.w3.org/2001/xml-events" xmlns:xlink="http://www.w3.org/1999/xlink"><defs /><rect fill="#1a1a1a" height="200" width="200" x="0" y="0" /><text alignment-baseline="middle" fill="#e1ed5e" style="dominant-baseline: central; font-size:9.0px; font-family:Arial;" text-anchor="middle" x="100.0" y="100.0">2020</text><line stroke="#e1ed5e" stroke-width="0.3" x1="100.0" x2="100.0" y1="15.0" y2="10.0" /><path d="M 100.0 14.0 a86.0,86.0 0 0,1 42.35913384403234,11.155469271406648" fill="none" id="id1" stroke="none" /><text fill="#e1ed5e" style="font-size:6.75px; font-family:Arial;" text-anchor="middle"><textPath startOffset="22.145653131862478" xlink:href="#id1">January</textPath></text><line stroke="#e1ed5e" stroke-width="0.3" x1="143.13028292997686" x2="145.6673583964461" y1="26.7553504044142" y2="22.446841604673864" /><path d="M 143.63769802327073 25.89364864446614 a86.0,86.0 0 0,1 29.32050498858742,28.57503671076992" fill="none" id="id2" stroke="none" /><text fill="#e1ed5e" style="font-size:6.75px; font-family:Arial;" text-anchor="middle"><textPath startOffset="20.669276256404974" xlink:href="#id2">February</textPath></text><line stroke="#e1ed5e" stroke-width="0.3" x1="172.87174338648825" x2="177.1583165268699" y1="56.24261187166439" y2="53.66864786411523" /><path d="M 173.72905801456457 55.72781907015455 a86.0,86.0 0 0,1 12.242430191666344,42.057860355516425" fill="none" id="id3" stroke="none" /><text fill="#e1ed5e" style="font-size:6.75px; font-family:Arial;" text-anchor="middle"><textPath startOffset="22.145653131862474" xlink:href="#id3">March</textPath></text><path d="M 119.94978838288452 93.4421083053983 l 37.56583637697565 -12.348636569432859 a60.543405111669905,60.543405111669905 0 0,0 0.31608063939193287,0.9901181010054578 l -37.77228173214484 11.701949434736013" fill="#5fff29" stroke="none" /><line stroke="#e1ed5e" stroke-width="0.3" x1="184.99686870605535" x2="189.99668451229388" y1="99.2704041080226" y2="99.22748670261217" /><path d="M 185.99683186730306 99.26182062694052 a86.0,86.0 0 0,1 -10.086455211305974,41.156179273409016" fill="none" id="id4" stroke="none" /><text fill="#e1ed5e" style="font-size:6.75px; font-family:Arial;" text-anchor="middle"><textPath startOffset="21.40746469413373" xlink:href="#id4">April</textPath></text><path d="M 120.05942366710727 106.21446072829308 l 12.951589233015362 4.012435451450051 a34.558882767868916,34.558882767868916 0 0,0 -0.18042252069884945,0.5651709763578788 l -12.880801996539258 -4.234175461499312" fill="#ff1702" stroke="none" /><line stroke="#e1ed5e" stroke-width="0.3" x1="174.33088141563837" x2="178.70328620479359" y1="141.23008692659167" y2="143.65538615756765" /><path d="M 175.20536237346943 141.71514677278685 a86.0,86.0 0 0,1 -30.301960400862466,31.63118572779886" fill="none" id="id5" stroke="none" /><text fill="#e1ed5e" style="font-size:6.75px; font-family:Arial;" text-anchor="middle"><textPath startOffset="22.145653131862474" xlink:href="#id5">May</textPath></text><line stroke="#e1ed5e" stroke-width="0.3" x1="143.1302829299769" x2="145.6673583964461" y1="173.24464959558577" y2="177.55315839532614" /><path d="M 143.63769802327073 174.10635135553383 a86.0,86.0 0 0,1 -40.685524379131806,11.842963189579606" fill="none" id="id6" stroke="none" /><text fill="#e1ed5e" style="font-size:6.75px; font-family:Arial;" text-anchor="middle"><textPath startOffset="21.407464694133747" xlink:href="#id6">June</textPath></text><line stroke="#e1ed5e" stroke-width="0.3" x1="101.45913802915013" x2="101.54496967792366" y1="184.9874750549273" y2="189.98673829345242" /><path d="M 101.47630435890484 185.9873277026323 a86.0,86.0 0 0,1 -42.54439059252881,-10.42667462771756" fill="none" id="id7" stroke="none" /><text fill="#e1ed5e" style="font-size:6.75px; font-family:Arial;" text-anchor="middle"><textPath startOffset="22.145653131862474" xlink:href="#id7">July</textPath></text><line stroke="#e1ed5e" stroke-width="0.3" x1="58.13341422392154" x2="55.670673884152215" y1="173.97424548756322" y2="178.32567169271397" /><path d="M 57.64086615596767 174.84453072859336 a86.0,86.0 0 0,1 -31.369924170532244,-30.572349798747886" fill="none" id="id8" stroke="none" /><text fill="#e1ed5e" style="font-size:6.75px; font-family:Arial;" text-anchor="middle"><textPath startOffset="22.145653131862474" xlink:href="#id8">August</textPath></text><line stroke="#e1ed5e" stroke-width="0.3" x1="26.387840678322732" x2="22.057713659400548" y1="142.50000000000003" y2="145.00000000000006" /><path d="M 25.521815274538298 143.00000000000003 a86.0,86.0 0 0,1 -11.493303480769221,-40.785679425670985" fill="none" id="id9" stroke="none" /><text fill="#e1ed5e" style="font-size:6.75px; font-family:Arial;" text-anchor="middle"><textPath startOffset="21.40746469413373" xlink:href="#id9">September</textPath></text><path d="M 79.94057633289273 106.21446072829308 l -33.97384467694012 10.525183925407362 a56.5668612446545,56.5668612446545 0 0,0 -0.27939633400664887,-0.9300195271752592 l 34.1495173309504 -9.940426794641379" fill="#93ff23" stroke="none" /><line stroke="#e1ed5e" stroke-width="0.3" x1="15.003131293944662" x2="10.003315487706104" y1="100.72959589197737" y2="100.7725132973878" /><path d="M 14.003168132696942 100.73817937305945 a86.0,86.0 0 0,1 10.791469493833604,-42.453326145846276" fill="none" id="id10" stroke="none" /><text fill="#e1ed5e" style="font-size:6.75px; font-family:Arial;" text-anchor="middle"><textPath startOffset="22.145653131862435" xlink:href="#id10">October</textPath></text><line stroke="#e1ed5e" stroke-width="0.3" x1="26.387840678322718" x2="22.05771365940052" y1="57.5" y2="55.0" /><path d="M 25.521815274538284 57.0 a86.0,86.0 0 0,1 29.574782752854787,-30.346332500585742" fill="none" id="id11" stroke="none" /><text fill="#e1ed5e" style="font-size:6.75px; font-family:Arial;" text-anchor="middle"><textPath startOffset="21.40746469413373" xlink:href="#id11">November</textPath></text><line stroke="#e1ed5e" stroke-width="0.3" x1="56.869717070023135" x2="54.33264160355391" y1="26.7553504044142" y2="22.446841604673864" /><path d="M 56.362301976729285 25.89364864446614 a86.0,86.0 0 0,1 42.16139366436587,-11.88097634709845" fill="none" id="id12" stroke="none" /><text fill="#e1ed5e" style="font-size:6.75px; font-family:Arial;" text-anchor="middle"><textPath startOffset="22.145653131862474" xlink:href="#id12">December</textPath></text><path d="M 95.00130118170881 79.60360301121753 l -9.625541941061547 -39.27549584377271 a61.437799537479066,61.437799537479066 0 0,0 1.0265023048892705,-0.24225174893300008 l 8.949907482432371 39.43494373635194" fill="#54ff2b" stroke="none" /><path d="M 95.35216902796891 79.52079915486377 l -13.943492916093279 -61.43760253540869 a84.0,84.0 0 0,0 1.4089503335235287,-0.3070741674651436 l 12.886780165950631 61.667908161007546" fill="#4dd2ff" stroke="none" /><path d="M 95.70440661134978 79.44403061299748 l -5.37646060606872 -25.728310300687333 a47.284068931142734,47.284068931142734 0 0,0 0.7959564069311671,-0.1592135734455109 l 4.934007713606577 25.81681327079571" fill="#ffe715" stroke="none" /><path d="M 96.05791012581881 79.37332000966035 l -6.981625830582956 -36.53081649987389 a58.19198372479911,58.19198372479911 0 0,0 0.9827940672833082,-0.17909781765191765 l 6.353497029748609 36.645282491457166" fill="#7dff26" stroke="none" /><path d="M 96.41257539226777 79.30868818359171 l -6.250959051427217 -36.053870680906755 a57.591748798577086,57.591748798577086 0 0,0 0.9755562231509556,-0.16052740527680956 l 5.63112532522319 36.15586408467924" fill="#85ff25" stroke="none" /><path d="M 96.76829788921471 79.25015418208739 l -3.8400244742512752 -24.655711772383263 a45.95295395270242,45.95295395270242 0 0,0 0.7804888094330978,-0.11470497737840156 l 3.4162105592104925 24.71799782306055" fill="#ffd313" stroke="none" /><path d="M 97.12497278360702 79.19773525538626 l -3.3963867532435867 -24.574562638301916 a45.80815534942961,45.80815534942961 0 0,0 0.7798776893187113,-0.10097078057759275 l 2.974031242034081 24.629245015079906" fill="#ffd113" stroke="none" /><path d="M 98.1996594967304 79.07731436759882 l -1.8683970535734753 -21.71360590812006 a42.793842916818235,42.793842916818235 0 0,0 0.7324492370011152,-0.05669620327660904 l 1.4953788217971427 21.742479878391723" fill="#ffa10e" stroke="none" /><path d="M 98.5590905019552 79.04949213459386 l -1.392137048627796 -20.241367154964028 a41.28918406107596,41.28918406107596 0 0,0 0.7075307657247443,-0.042563293912117155 l 1.0444619307705683 20.26228242670084" fill="#ff890c" stroke="none" /><path d="M 98.9189461498227 79.02784411241856 l -1.3063948479894862 -25.343711044806412 a46.37735914198907,46.37735914198907 0 0,0 0.7954252406813576,-0.03415898233902327 l 0.8711438467073085 25.362402595571265" fill="#ffd914" stroke="none" /><path d="M 99.27912038922189 79.0123766808444 l -0.42131124032576706 -12.266017071198739 a33.27325050474257,33.27325050474257 0 0,0 0.5710112609284819,-0.014707224565132144 l 0.21068666532654118 12.271442013113917" fill="#ff0000" stroke="none" /></svg>